<svg xmlns="http://www.w3.org/2000/svg" viewBox="0 0 626.39 334.87"><title>Asset 4</title><g id="Layer_2" data-name="Layer 2"><g id="Layer_1-2" data-name="Layer 1"><text transform="translate(170.87 219.16) scale(1 0.99)" font-size="130" fill="#34495e" font-family="Neris-SemiBold, Neris" letter-spacing="-0.07em"><tspan font-weight="700">à</tspan><tspan x="57.46" y="0" font-weight="700" letter-spacing="-0.07em">w</tspan><tspan x="152.36" y="0" font-weight="700" letter-spacing="-0.05em">árí</tspan><tspan x="286.26" y="0" fill="#fe7058" font-family="Neris-Black, Neris" letter-spacing="-0.05em">TV</tspan></text><path d="M158.07,20.56l-5.75-1.46-4-1c0,.21-.07.41-.12.62-1,4-5.39,6.32-9.78,5.21L92.85,12.37c-4.39-1.11-7.13-5.25-6.12-9.24.05-.21.12-.41.19-.6l-1.2-.31L78,.27C71.79-1.3,65,4.25,62.91,12.67L.65,258.35c-2.13,8.42,1.16,16.52,7.35,18.09l7,1.76L81.14,295l6.95,1.76c6.19,1.57,12.94-4,15.08-12.41L165.42,38.65C167.56,30.23,164.27,22.13,158.07,20.56Z" fill="#f4f5f7"/><ellipse cx="141.72" cy="46.01" rx="9.81" ry="10.79" transform="translate(62.31 172.09) rotate(-75.78)" fill="#fe7058"/><ellipse cx="134.98" cy="72.63" rx="9.81" ry="10.79" transform="translate(31.41 185.63) rotate(-75.78)" fill="#34495e"/><ellipse cx="104.45" cy="64.9" rx="9.81" ry="10.79" transform="translate(15.88 150.2) rotate(-75.78)" fill="#34495e"/><ellipse cx="73.49" cy="57.05" rx="9.81" ry="10.79" transform="translate(0.14 114.28) rotate(-75.78)" fill="#34495e"/><ellipse cx="127.94" cy="100.4" rx="9.81" ry="10.79" transform="translate(-0.81 199.76) rotate(-75.78)" fill="#34495e"/><ellipse cx="97.41" cy="92.66" rx="9.81" ry="10.79" transform="translate(-16.34 164.32) rotate(-75.78)" fill="#34495e"/><ellipse cx="66.46" cy="84.82" rx="9.81" ry="10.79" transform="translate(-32.09 128.4) rotate(-75.78)" fill="#34495e"/><ellipse cx="120.91" cy="128.16" rx="9.81" ry="10.79" transform="translate(-33.03 213.88) rotate(-75.78)" fill="#34495e"/><ellipse cx="90.37" cy="120.43" rx="9.81" ry="10.79" transform="translate(-48.56 178.45) rotate(-75.78)" fill="#34495e"/><ellipse cx="59.42" cy="112.58" rx="9.81" ry="10.79" transform="translate(-64.31 142.53) rotate(-75.78)" fill="#34495e"/><ellipse cx="113.87" cy="155.93" rx="9.81" ry="10.79" transform="translate(-65.25 228.01) rotate(-75.78)" fill="#34495e"/><ellipse cx="83.34" cy="148.19" rx="9.81" ry="10.79" transform="translate(-80.79 192.57) rotate(-75.78)" fill="#34495e"/><ellipse cx="52.39" cy="140.35" rx="9.81" ry="10.79" transform="translate(-96.53 156.65) rotate(-75.78)" fill="#34495e"/><ellipse cx="71.88" cy="194.19" rx="23.54" ry="25.89" transform="translate(-134.01 216.17) rotate(-75.78)" fill="#34495e"/><path d="M92.85,12.37l45.59,11.55c4.39,1.11,8.77-1.22,9.78-5.21.05-.21.09-.41.12-.62L86.92,2.53c-.07.2-.14.4-.19.6C85.72,7.12,88.46,11.26,92.85,12.37Z" fill="#dee1e7"/><text></text></g></g></svg>