<?xml version="1.0" encoding="utf-8"?>
<!-- Generator: Adobe Illustrator 20.0.0, SVG Export Plug-In . SVG Version: 6.00 Build 0)  -->
<svg version="1.1" id="Layer_1" xmlns="http://www.w3.org/2000/svg" xmlns:xlink="http://www.w3.org/1999/xlink" x="0px" y="0px"
	 viewBox="0 0 459.8 93.7" style="enable-background:new 0 0 459.8 93.7;" xml:space="preserve">
<style type="text/css">
	.st0{display:none;fill:#004A61;}
	.st1{fill:#474747;}
	.st2{fill:#424141;}
	.st3{fill:#DEE1E7;}
</style>
<path class="st0" d="M-15.4,186.9c-0.5-0.1-0.9-0.1-1.2,0.1s-0.6,0.5-0.8,1l-4.1,13.7c-0.2,0.6-0.2,1,0,1.4c0.2,0.3,0.6,0.6,1.1,0.8
	l6.9,1.9c1.2,0.3,2.6,0.6,4,0.8c1.5,0.2,2.9,0.4,4.5,0.5c1.5,0.1,3,0.1,4.4,0.1c6.8,0,12.7-1.2,17.5-3.6s8.6-6,11.2-10.7
	c2.6-4.7,3.9-10.5,3.9-17.3v-50.4c0-0.5-0.1-0.9-0.3-1.2s-0.5-0.5-1-0.7L17.5,118c-2.7-1-5.3-1.8-7.9-2.1c-2.6-0.4-5-0.5-7.3-0.5
	c-6.4,0-11.9,1.3-16.5,3.9c-4.6,2.6-8.1,6.3-10.6,11.1c-2.5,4.8-3.7,10.7-3.7,17.6c0,4.8,0.6,9.1,1.9,13c1.3,3.9,3.1,7.2,5.5,10
	s5.3,4.9,8.8,6.4c3.4,1.5,7.4,2.2,11.7,2.3c1.8,0,3.6-0.1,5.3-0.4c1.8-0.3,3.5-0.7,5.1-1.3c1.7-0.6,3.2-1.5,4.6-2.5
	c0.5-0.3,0.9-0.5,1.2-0.5s0.5,0.1,0.6,0.3c0.1,0.2,0.2,0.4,0.2,0.7c0,0.5-0.1,1.2-0.2,1.9c-0.1,0.7-0.3,1.4-0.6,2
	c-0.9,2.2-2,3.9-3.4,5.2c-1.4,1.3-2.9,2.3-4.6,2.9c-1.6,0.6-3.3,1.1-4.8,1.3c-1.6,0.2-3,0.3-4.3,0.3c-0.9,0-1.9,0-3-0.1
	c-1-0.1-2.1-0.2-3.1-0.4c-1-0.2-2-0.4-2.9-0.6L-15.4,186.9L-15.4,186.9z M12.5,135.7v13.8c0,3-0.4,5.5-1.3,7.4
	c-0.9,1.9-2.1,3.2-3.7,4.1c-1.6,0.9-3.5,1.3-5.7,1.3c-2.3,0-4.3-0.6-5.8-1.8c-1.6-1.2-2.8-2.9-3.7-5.1c-0.8-2.2-1.3-4.7-1.3-7.7
	c0-4.6,1-8.2,3-10.7c1.9-2.5,4.7-3.8,8.3-3.8c1.2,0,2.5,0.1,3.9,0.4s2.6,0.6,3.8,1.1L12.5,135.7L12.5,135.7z M53.6,85.8
	c-3.5,0-6.3,1-8.2,3s-2.9,4.8-2.9,8.4c0,3.6,1,6.4,2.9,8.4s4.7,3,8.2,3.1c3.6,0,6.4-1.1,8.3-3.1c1.9-2,2.9-4.8,2.9-8.4
	c0-3.7-1-6.5-2.9-8.4C59.9,86.8,57.2,85.8,53.6,85.8L53.6,85.8z M65.1,118.4c0-0.5-0.1-0.9-0.4-1.2s-0.7-0.4-1.2-0.4H38.8
	c-0.5,0-0.9,0.1-1.2,0.4c-0.3,0.3-0.4,0.7-0.4,1.2v14.1c0,0.5,0.1,0.9,0.4,1.2c0.3,0.3,0.7,0.4,1.2,0.4h6.5v42.5
	c0,0.5,0.1,0.9,0.4,1.2c0.3,0.3,0.7,0.4,1.2,0.4h16.5c0.5,0,0.9-0.1,1.2-0.4c0.3-0.3,0.4-0.7,0.4-1.2v-58.2H65.1z M71.3,133.7
	c0.3,0.3,0.7,0.4,1.2,0.4H79v42.5c0,0.5,0.1,0.9,0.4,1.2c0.3,0.3,0.7,0.4,1.2,0.4h16.5c0.5,0,0.9-0.1,1.2-0.4
	c0.3-0.3,0.4-0.7,0.4-1.2v-42.5h14.2c0.5,0,0.9-0.1,1.2-0.4c0.3-0.3,0.4-0.7,0.4-1.2v-14.2c0-0.5-0.1-0.9-0.4-1.2s-0.7-0.4-1.2-0.4
	H98.7v-5.4c0-2.5,0.6-4.5,1.8-5.9c1.2-1.4,2.8-2.1,4.9-2.1c0.7,0,1.3,0,1.8,0.1s1,0.1,1.5,0.3c0.5,0.1,1.1,0.3,1.8,0.5l2.1,0.6
	c0.5,0.2,0.9,0.2,1.2,0c0.3-0.2,0.6-0.5,0.8-1l4.1-13.8c0.2-0.5,0.2-0.9,0-1.2s-0.5-0.6-1-0.8l-2.6-0.8c-1.4-0.5-2.7-0.8-3.7-1
	c-1.1-0.2-2.1-0.4-3-0.5c-1-0.1-2-0.1-3-0.1c-5.6,0-10.3,1-14.3,3.1c-4,2-7,5-9.1,8.8s-3.2,8.4-3.2,13.8v5.4l0,0h-6.5
	c-0.5,0-0.9,0.1-1.2,0.4c-0.3,0.3-0.4,0.7-0.4,1.2 M145.6,116.7h14.2c0.5,0,0.9,0.1,1.2,0.4c0.3,0.3,0.4,0.7,0.4,1.2v14.2
	c0,0.5-0.1,0.9-0.4,1.2c-0.3,0.3-0.7,0.4-1.2,0.4h-14.2v22.8c0,1.7,0.3,2.9,0.9,3.8s1.4,1.3,2.4,1.3c0.6,0,1.1,0,1.6-0.1
	s1-0.2,1.5-0.4c0.5-0.2,0.9-0.3,1.3-0.1c0.4,0.1,0.7,0.4,0.9,0.9l5.9,12c0.2,0.4,0.3,0.9,0.2,1.3c-0.1,0.4-0.3,0.7-0.7,1
	c-1.5,1-3.2,1.8-5.1,2.3s-3.8,0.8-5.7,0.8c-4.9,0-9-0.9-12.4-2.7c-3.4-1.8-6-4.4-7.9-7.7c-1.8-3.4-2.7-7.4-2.8-12.2v-22.8h-6.5
	c-0.5,0-0.9-0.1-1.2-0.4c-0.3-0.3-0.4-0.7-0.4-1.2v-14.2c0-0.5,0.1-0.9,0.4-1.2s0.7-0.4,1.2-0.4h6.5v-13.7c0-0.4,0.1-0.8,0.3-1.1
	c0.2-0.3,0.6-0.6,1.1-0.8l16.5-5.5c0.6-0.2,1-0.2,1.4,0.1c0.3,0.2,0.5,0.7,0.5,1.3v19.5H145.6z M183.7,89.8c0-0.4-0.1-0.8-0.4-1
	s-0.6-0.4-1-0.4h-11.2c-0.4,0-0.8,0.1-1,0.4c-0.2,0.3-0.4,0.6-0.4,1v73.8c0,3.4,0.7,6.3,2,8.7c1.3,2.4,3.2,4.2,5.6,5.5
	s5.4,1.9,8.8,1.9c1,0,1.9-0.1,2.9-0.3c1-0.2,1.9-0.5,2.8-0.8c0.4-0.2,0.6-0.4,0.7-0.8c0.1-0.3,0.1-0.7-0.1-1.1l-3.8-8.9
	c-0.2-0.4-0.4-0.7-0.7-0.8c-0.3-0.1-0.6-0.1-1.1,0c-0.1,0-0.3,0-0.4,0s-0.3,0-0.5,0c-0.8,0-1.4-0.3-1.9-0.9
	c-0.4-0.6-0.6-1.4-0.6-2.5V89.8H183.7z M224.2,116.2c-6,0-11.2,1.3-15.5,3.9c-4.3,2.5-7.6,6.2-9.9,10.9c-2.3,4.7-3.5,10.3-3.5,16.8
	s1.2,12.2,3.5,16.9c2.3,4.7,5.6,8.4,9.9,11s9.5,3.9,15.5,3.9s11.1-1.3,15.4-3.9s7.6-6.2,9.9-11c2.3-4.7,3.5-10.4,3.5-16.9
	s-1.2-12.1-3.5-16.8c-2.3-4.7-5.6-8.4-9.9-10.9S230.2,116.3,224.2,116.2L224.2,116.2z M224.2,128.8c3.1,0,5.8,0.8,8,2.3
	s4,3.7,5.2,6.5s1.8,6.2,1.8,10.2s-0.6,7.5-1.8,10.3c-1.2,2.9-2.9,5-5.2,6.6c-2.2,1.5-4.9,2.3-8,2.3c-3.2,0-5.9-0.8-8.2-2.3
	c-2.3-1.5-4-3.7-5.2-6.6s-1.8-6.3-1.8-10.3s0.6-7.4,1.8-10.2c1.2-2.8,2.9-5,5.2-6.5S221,128.8,224.2,128.8L224.2,128.8z
	 M269.1,191.2c-0.4-0.1-0.7-0.1-1,0.1s-0.5,0.4-0.6,0.8l-2.9,9.3c-0.1,0.4-0.1,0.8,0.1,1.1c0.2,0.3,0.5,0.5,0.9,0.6l6.1,1.8
	c1.2,0.3,2.5,0.6,4.1,0.9c1.5,0.2,3.1,0.4,4.8,0.5c1.7,0.1,3.3,0.2,4.8,0.2c6.4,0,11.8-1.1,16.3-3.3c4.5-2.2,7.9-5.4,10.2-9.7
	c2.3-4.3,3.5-9.5,3.5-15.7v-52.5c0-0.8-0.4-1.3-1.1-1.5l-11.2-4.6c-2.5-1-5-1.7-7.6-2.2s-5.2-0.7-7.8-0.7c-6.1,0-11.4,1.3-15.7,3.8
	c-4.3,2.5-7.7,6.1-10,10.9c-2.3,4.8-3.5,10.5-3.5,17.3c0,6.4,1.1,12,3.2,16.7s5.2,8.3,9.1,10.9c4,2.5,8.7,3.8,14.2,3.9
	c3.6,0,6.9-0.7,9.8-1.9c2.9-1.3,5.4-3.1,7.5-5.3c0.6-0.5,1-0.7,1.3-0.6c0.3,0.2,0.5,0.5,0.5,0.9c0,0.6-0.1,1.1-0.1,1.5
	s-0.1,0.8-0.1,1.3c-0.1,0.4-0.1,1-0.2,1.8s-0.1,1.8-0.3,3.2c-0.8,3.3-2.1,6-3.9,7.9c-1.9,2-4.1,3.4-6.6,4.2
	c-2.5,0.9-5.3,1.3-8.2,1.3c-1.2,0-2.5-0.1-3.8-0.2s-2.6-0.3-3.8-0.5c-1.2-0.2-2.3-0.4-3.2-0.7L269.1,191.2L269.1,191.2z
	 M301.6,132.7v15.4c0,4-0.6,7.4-1.7,10.3c-1.1,2.8-2.8,5-5,6.4c-2.2,1.5-4.9,2.2-8.1,2.2c-3.1,0-5.7-0.8-7.9-2.4
	c-2.2-1.6-3.8-3.8-4.9-6.7c-1.1-2.9-1.7-6.2-1.7-10c0-4,0.6-7.5,1.8-10.3c1.2-2.8,2.9-5,5.2-6.5c2.3-1.5,5-2.3,8.3-2.3
	c1.8,0,3.6,0.2,5.4,0.5c1.8,0.4,3.3,0.9,4.7,1.6L301.6,132.7L301.6,132.7z M352.3,116.2c-6,0-11.2,1.3-15.5,3.9
	c-4.3,2.5-7.6,6.2-9.9,10.9c-2.3,4.7-3.5,10.3-3.5,16.8s1.2,12.2,3.5,16.9c2.3,4.7,5.6,8.4,9.9,11c4.3,2.6,9.5,3.9,15.5,3.9
	s11.1-1.3,15.4-3.9c4.3-2.6,7.6-6.2,9.9-11c2.3-4.7,3.5-10.4,3.5-16.9s-1.2-12.1-3.5-16.8c-2.3-4.7-5.6-8.4-9.9-10.9
	S358.2,116.3,352.3,116.2L352.3,116.2z M352.3,128.8c3.1,0,5.8,0.8,8,2.3s4,3.7,5.2,6.5s1.8,6.2,1.8,10.2s-0.6,7.5-1.8,10.3
	c-1.2,2.9-2.9,5-5.2,6.6c-2.2,1.5-4.9,2.3-8,2.3c-3.2,0-5.9-0.8-8.2-2.3s-4-3.7-5.2-6.6s-1.8-6.3-1.8-10.3s0.6-7.4,1.8-10.2
	c1.2-2.8,2.9-5,5.2-6.5S349.1,128.8,352.3,128.8z"/>
<g>
	<path class="st1" d="M12.1,31.1c4.8-1.3,9.4-2.1,14.3-2.1c19.8,0,31.3,9.3,31.3,25v38c0,1-0.6,1.7-1.7,1.7h-9.8
		c-1,0-1.6-0.4-2.1-1.2l-1.2-2.3c-0.8-1.5-2-1.8-4.2,0c-3.4,3-8.6,4.9-14,4.9C9.2,95.1,0,87.5,0,74.5c0-12,9.6-19,25.7-19h12.2v-0.3
		c-0.5-5.5-5.3-8.8-12.7-8.8c-2.6,0-5.6,0.5-8.5,1.3l-4.9,1.4c-1,0.3-1.7-0.1-2.1-1.2l-4-13.4c-0.4-1.2,0-1.8,1.2-2.1L12.1,31.1z
		 M39.7,20.1c0.5,1.2-0.1,1.9-1.3,1.9H24.5c-0.9,0-1.6-0.4-2.1-1L9.7,2.1C9,0.9,9.4,0,10.9,0H30c1,0,1.6,0.4,1.9,1.3L39.7,20.1z
		 M25.9,68.2c-3.8,0-6.5,2.1-6.5,4.9c0,3.6,2.7,5.7,7.4,5.7c6.8,0,10.5-3.2,11.3-10.3v-0.3L25.9,68.2L25.9,68.2z"/>
	<path class="st1" d="M149.4,64.2c-3.6,13-5.3,19-7.4,28.1c-0.3,0.9-0.9,1.4-1.9,1.4h-21.3c-1,0-1.7-0.5-1.9-1.4l-2.7-11.1l-1.4-5.3
		c-0.8-3-2.1-8.6-2.9-11.8c-0.4-1.7-1.4-1.7-1.8,0c-0.8,3.3-2.1,9.3-2.7,11.8l-1.4,5.3c-1.2,4.2-2,7.5-2.7,11.1
		c-0.3,0.9-0.9,1.4-1.9,1.4H78.1c-1,0-1.7-0.5-2-1.4c-2.1-9-3.8-14.8-7.4-28.1l-9-31.8c-0.3-1.2,0.3-1.9,1.4-1.9h17.3
		c1,0,1.7,0.5,2,1.4l3,12.4c2.5,10.4,3.9,17.2,5.5,26c0.3,1.7,2.1,1.7,2.5,0c2-8.8,4.9-18.8,7.8-29.5l2.3-8.9
		c0.3-0.9,0.9-1.4,1.9-1.4H115c0.9,0,1.6,0.5,1.8,1.4l2.5,8.9c2.9,10.3,5.9,20.7,7.8,29.5c0.4,1.7,2.1,1.7,2.3,0
		c1.4-8.8,2.7-14.9,5.5-26l3-12.4c0.3-0.9,0.9-1.4,1.9-1.4h17.3c1.2,0,1.7,0.8,1.4,1.9L149.4,64.2z"/>
	<path class="st1" d="M170.5,31.1c4.8-1.3,9.4-2.1,14.3-2.1c19.8,0,31.3,9.3,31.3,25v38c0,1-0.6,1.7-1.7,1.7h-9.8
		c-1,0-1.6-0.4-2.1-1.2l-1.2-2.3c-0.8-1.5-2-1.8-4.2,0c-3.4,3-8.6,4.9-14,4.9c-15.5,0-24.7-7.6-24.7-20.6c0-12,9.6-19,25.7-19h12.2
		v-0.3c-0.5-5.5-5.3-8.8-12.7-8.8c-2.6,0-5.6,0.5-8.5,1.3l-4.9,1.4c-1,0.3-1.7-0.1-2.1-1.2l-4-13.4c-0.4-1.2,0-1.8,1.2-2.1
		L170.5,31.1z M184.3,68.2c-3.8,0-6.5,2.1-6.5,4.9c0,3.6,2.7,5.7,7.4,5.7c6.8,0,10.5-3.2,11.3-10.3v-0.3L184.3,68.2L184.3,68.2z
		 M208,0c1.4,0,1.8,0.9,1.2,2.1L196.5,21c-0.5,0.6-1.2,1-2.1,1h-13.9c-1.2,0-1.8-0.8-1.3-1.9L187,1.3c0.4-0.9,0.9-1.3,2-1.3H208z"/>
	<path class="st1" d="M264.1,45.5c0,1.2-0.5,1.7-1.7,1.7c-14.3,0.6-18.7,8.6-18.7,34.4V92c0,1-0.7,1.7-1.7,1.7h-17.3
		c-1,0-1.7-0.6-1.7-1.7V32.2c0-1,0.6-1.7,1.7-1.7h9.2c0.9,0,1.6,0.4,2,1.2l3.4,5.1c1.2,1.7,1.7,2.1,3.3,0.4
		c5.6-5.8,10.8-7.9,19.9-8.1c1,0,1.7,0.6,1.7,1.7L264.1,45.5L264.1,45.5z"/>
	<path class="st1" d="M277.1,93.7c-1,0-1.7-0.6-1.7-1.7V48.4h-6.8c-1,0-1.7-0.6-1.7-1.7V32.2c0-1,0.6-1.7,1.7-1.7h25.6
		c1,0,1.7,0.6,1.7,1.7V92c0,1-0.7,1.7-1.7,1.7H277.1z M291.1,20.8c-0.4,0.8-1,1.2-2,1.2h-13c-1.2,0-1.7-0.8-1.4-1.9L280,1.4
		c0.3-0.9,0.9-1.4,1.8-1.4h18.1c1.4,0,2,0.8,1.3,1.9L291.1,20.8z"/>
	<path class="st2" d="M374.3,15.3c0,0.9-0.5,1.4-1.4,1.4h-27.7v75.5c0,0.9-0.5,1.4-1.4,1.4h-12c-0.9,0-1.4-0.5-1.4-1.4V16.7h-27.6
		c-0.9,0-1.4-0.5-1.4-1.4V5.1c0-0.9,0.5-1.4,1.4-1.4h70.1c0.9,0,1.4,0.5,1.4,1.4L374.3,15.3L374.3,15.3z"/>
	<path class="st2" d="M437.1,61.7c-3.9,10.3-7.2,20.6-9.8,30.8c-0.1,0.8-0.7,1.2-1.6,1.2h-15.2c-0.9,0-1.4-0.4-1.6-1.2
		c-2.7-10-6-20.5-9.9-30.8L376.6,5.3c-0.4-1,0-1.7,1.2-1.7h12.6c0.8,0,1.3,0.4,1.6,1.2l18.5,46.1c3,8,5.5,16.7,6.6,22.9
		c0.3,1.4,2,1.4,2.1,0c1.2-6.2,3.6-14.9,6.8-22.9l18.3-46.1c0.3-0.8,0.8-1.2,1.6-1.2h12.5c1.2,0,1.6,0.6,1.2,1.7L437.1,61.7z"/>
</g>
<g>
	<path class="st3" d="M-102.7-119c-0.1,0.2-0.1,0.4-0.2,0.6"/>
</g>
</svg>
