<?xml version="1.0" encoding="utf-8"?>
<!-- Generator: Adobe Illustrator 20.0.0, SVG Export Plug-In . SVG Version: 6.00 Build 0)  -->
<svg version="1.1" id="Ñëîé_1" xmlns="http://www.w3.org/2000/svg" xmlns:xlink="http://www.w3.org/1999/xlink" x="0px" y="0px"
	 viewBox="0 0 1000 1000" style="enable-background:new 0 0 1000 1000;" xml:space="preserve">
<style type="text/css">
	.st0{fill:#72D0F6;}
	.st1{fill:#18BCEE;}
	.st2{fill:#F4F5F7;}
	.st3{fill:#FE7058;}
	.st4{fill:#34495E;}
	.st5{fill:#DEE1E7;}
</style>
<rect class="st0" width="1000" height="1000"/>
<g id="XMLID_1_">
</g>
<path class="st1" d="M577.2,254.8l-1.5-1.5c-2.8-2.5-6-3.9-9.5-3.9h-9.5H550H448.6h-2h-12.8c-10.2,0-18.5,12.4-18.5,27.7v446
	c0,9.3,3,17.4,7.7,22.5l1.2,1.2L677.6,1000H1000V677.6L577.2,254.8z"/>
<g>
	<path class="st2" d="M566.1,249.3h-9.5H550c0,0.4,0.1,0.7,0.1,1.1c0,7.2-5.9,13.1-13.1,13.1h-75.3c-7.2,0-13.1-5.9-13.1-13.1
		c0-0.4,0-0.7,0.1-1.1h-2h-12.8c-10.2,0-18.5,12.4-18.5,27.7v446c0,15.3,8.3,27.7,18.5,27.7h11.5h109.3h11.5
		c10.2,0,18.5-12.4,18.5-27.7V277C584.6,261.7,576.3,249.3,566.1,249.3z"/>
	<g>
		<circle class="st3" cx="550.8" cy="299.8" r="17.3"/>
		<g>
			<circle class="st4" cx="550.8" cy="348.1" r="17.3"/>
			<circle class="st4" cx="500.3" cy="348.1" r="17.3"/>
			<circle class="st4" cx="449.2" cy="348.1" r="17.3"/>
			<circle class="st4" cx="550.8" cy="398.5" r="17.3"/>
			<circle class="st4" cx="500.3" cy="398.5" r="17.3"/>
			<circle class="st4" cx="449.2" cy="398.5" r="17.3"/>
			<circle class="st4" cx="550.8" cy="448.9" r="17.3"/>
			<circle class="st4" cx="500.3" cy="448.9" r="17.3"/>
			<circle class="st4" cx="449.2" cy="448.9" r="17.3"/>
			<circle class="st4" cx="550.8" cy="499.3" r="17.3"/>
			<circle class="st4" cx="500.3" cy="499.3" r="17.3"/>
			<circle class="st4" cx="449.2" cy="499.3" r="17.3"/>
		</g>
		<circle class="st4" cx="500.7" cy="582.8" r="41.4"/>
	</g>
	<path class="st5" d="M461.7,263.5H537c7.2,0,13.1-5.9,13.1-13.1c0-0.4,0-0.7-0.1-1.1H448.6c0,0.4-0.1,0.7-0.1,1.1
		C448.6,257.7,454.5,263.5,461.7,263.5z"/>
</g>
</svg>
