<?xml version="1.0" encoding="utf-8"?>
<!-- Generator: Adobe Illustrator 20.0.0, SVG Export Plug-In . SVG Version: 6.00 Build 0)  -->
<svg version="1.1" id="Layer_1" xmlns="http://www.w3.org/2000/svg" xmlns:xlink="http://www.w3.org/1999/xlink" x="0px" y="0px"
	 viewBox="0 0 658.3 334.9" style="enable-background:new 0 0 658.3 334.9;" xml:space="preserve">
<style type="text/css">
	.st0{display:none;fill:#004A61;}
	.st1{display:none;}
	.st2{fill:#DEE1E7;}
	.st3{fill:#FE7058;}
	.st4{fill:#F4F5F7;}
	.st5{fill:#34495E;}
</style>
<path class="st0" d="M178.2,312.4c-0.5-0.1-0.9-0.1-1.2,0.1c-0.3,0.2-0.6,0.5-0.8,1l-4.1,13.7c-0.2,0.6-0.2,1,0,1.4
	c0.2,0.3,0.6,0.6,1.1,0.8l6.9,1.9c1.2,0.3,2.6,0.6,4,0.8c1.5,0.2,2.9,0.4,4.5,0.5c1.5,0.1,3,0.1,4.4,0.1c6.8,0,12.7-1.2,17.5-3.6
	c4.8-2.4,8.6-6,11.2-10.7c2.6-4.7,3.9-10.5,3.9-17.3v-50.4c0-0.5-0.1-0.9-0.3-1.2c-0.2-0.3-0.5-0.5-1-0.7l-13.2-5.3
	c-2.7-1-5.3-1.8-7.9-2.1c-2.6-0.4-5-0.5-7.3-0.5c-6.4,0-11.9,1.3-16.5,3.9c-4.6,2.6-8.1,6.3-10.6,11.1c-2.5,4.8-3.7,10.7-3.7,17.6
	c0,4.8,0.6,9.1,1.9,13c1.3,3.9,3.1,7.2,5.5,10c2.4,2.8,5.3,4.9,8.8,6.4c3.4,1.5,7.4,2.2,11.7,2.3c1.8,0,3.6-0.1,5.3-0.4
	c1.8-0.3,3.5-0.7,5.1-1.3c1.7-0.6,3.2-1.5,4.6-2.5c0.5-0.3,0.9-0.5,1.2-0.5c0.3,0,0.5,0.1,0.6,0.3c0.1,0.2,0.2,0.4,0.2,0.7
	c0,0.5-0.1,1.2-0.2,1.9c-0.1,0.7-0.3,1.4-0.6,2c-0.9,2.2-2,3.9-3.4,5.2c-1.4,1.3-2.9,2.3-4.6,2.9c-1.6,0.6-3.3,1.1-4.8,1.3
	c-1.6,0.2-3,0.3-4.3,0.3c-0.9,0-1.9,0-3-0.1c-1-0.1-2.1-0.2-3.1-0.4c-1-0.2-2-0.4-2.9-0.6L178.2,312.4L178.2,312.4z M206.1,261.2
	V275c0,3-0.4,5.5-1.3,7.4c-0.9,1.9-2.1,3.2-3.7,4.1c-1.6,0.9-3.5,1.3-5.7,1.3c-2.3,0-4.3-0.6-5.8-1.8c-1.6-1.2-2.8-2.9-3.7-5.1
	c-0.8-2.2-1.3-4.7-1.3-7.7c0-4.6,1-8.2,3-10.7c1.9-2.5,4.7-3.8,8.3-3.8c1.2,0,2.5,0.1,3.9,0.4c1.4,0.3,2.6,0.6,3.8,1.1L206.1,261.2
	L206.1,261.2z M247.2,211.3c-3.5,0-6.3,1-8.2,3c-1.9,2-2.9,4.8-2.9,8.4c0,3.6,1,6.4,2.9,8.4c1.9,2,4.7,3,8.2,3.1
	c3.6,0,6.4-1.1,8.3-3.1c1.9-2,2.9-4.8,2.9-8.4c0-3.7-1-6.5-2.9-8.4C253.5,212.3,250.8,211.3,247.2,211.3L247.2,211.3z M258.7,243.9
	c0-0.5-0.1-0.9-0.4-1.2c-0.3-0.3-0.7-0.4-1.2-0.4h-24.7c-0.5,0-0.9,0.1-1.2,0.4c-0.3,0.3-0.4,0.7-0.4,1.2V258c0,0.5,0.1,0.9,0.4,1.2
	c0.3,0.3,0.7,0.4,1.2,0.4h6.5v42.5c0,0.5,0.1,0.9,0.4,1.2c0.3,0.3,0.7,0.4,1.2,0.4h16.5c0.5,0,0.9-0.1,1.2-0.4
	c0.3-0.3,0.4-0.7,0.4-1.2V243.9L258.7,243.9z M264.9,259.2c0.3,0.3,0.7,0.4,1.2,0.4h6.5v42.5c0,0.5,0.1,0.9,0.4,1.2
	c0.3,0.3,0.7,0.4,1.2,0.4h16.5c0.5,0,0.9-0.1,1.2-0.4c0.3-0.3,0.4-0.7,0.4-1.2v-42.5h14.2c0.5,0,0.9-0.1,1.2-0.4
	c0.3-0.3,0.4-0.7,0.4-1.2v-14.2c0-0.5-0.1-0.9-0.4-1.2c-0.3-0.3-0.7-0.4-1.2-0.4h-14.2v-5.4c0-2.5,0.6-4.5,1.8-5.9
	c1.2-1.4,2.8-2.1,4.9-2.1c0.7,0,1.3,0,1.8,0.1c0.5,0.1,1,0.1,1.5,0.3c0.5,0.1,1.1,0.3,1.8,0.5l2.1,0.6c0.5,0.2,0.9,0.2,1.2,0
	c0.3-0.2,0.6-0.5,0.8-1l4.1-13.8c0.2-0.5,0.2-0.9,0-1.2c-0.2-0.3-0.5-0.6-1-0.8l-2.6-0.8c-1.4-0.5-2.7-0.8-3.7-1
	c-1.1-0.2-2.1-0.4-3-0.5c-1-0.1-2-0.1-3-0.1c-5.6,0-10.3,1-14.3,3.1c-4,2-7,5-9.1,8.8c-2.1,3.8-3.2,8.4-3.2,13.8v5.4l0,0h-6.5
	c-0.5,0-0.9,0.1-1.2,0.4c-0.3,0.3-0.4,0.7-0.4,1.2 M339.2,242.2h14.2c0.5,0,0.9,0.1,1.2,0.4c0.3,0.3,0.4,0.7,0.4,1.2V258
	c0,0.5-0.1,0.9-0.4,1.2c-0.3,0.3-0.7,0.4-1.2,0.4h-14.2v22.8c0,1.7,0.3,2.9,0.9,3.8c0.6,0.9,1.4,1.3,2.4,1.3c0.6,0,1.1,0,1.6-0.1
	c0.5-0.1,1-0.2,1.5-0.4c0.5-0.2,0.9-0.3,1.3-0.1c0.4,0.1,0.7,0.4,0.9,0.9l5.9,12c0.2,0.4,0.3,0.9,0.2,1.3c-0.1,0.4-0.3,0.7-0.7,1
	c-1.5,1-3.2,1.8-5.1,2.3c-1.9,0.5-3.8,0.8-5.7,0.8c-4.9,0-9-0.9-12.4-2.7c-3.4-1.8-6-4.4-7.9-7.7c-1.8-3.4-2.7-7.4-2.8-12.2v-22.8
	h-6.5c-0.5,0-0.9-0.1-1.2-0.4c-0.3-0.3-0.4-0.7-0.4-1.2v-14.2c0-0.5,0.1-0.9,0.4-1.2c0.3-0.3,0.7-0.4,1.2-0.4h6.5v-13.7
	c0-0.4,0.1-0.8,0.3-1.1c0.2-0.3,0.6-0.6,1.1-0.8l16.5-5.5c0.6-0.2,1-0.2,1.4,0.1c0.3,0.2,0.5,0.7,0.5,1.3V242.2L339.2,242.2z
	 M377.3,215.3c0-0.4-0.1-0.8-0.4-1c-0.3-0.2-0.6-0.4-1-0.4h-11.2c-0.4,0-0.8,0.1-1,0.4c-0.2,0.3-0.4,0.6-0.4,1v73.8
	c0,3.4,0.7,6.3,2,8.7c1.3,2.4,3.2,4.2,5.6,5.5c2.4,1.3,5.4,1.9,8.8,1.9c1,0,1.9-0.1,2.9-0.3c1-0.2,1.9-0.5,2.8-0.8
	c0.4-0.2,0.6-0.4,0.7-0.8c0.1-0.3,0.1-0.7-0.1-1.1l-3.8-8.9c-0.2-0.4-0.4-0.7-0.7-0.8c-0.3-0.1-0.6-0.1-1.1,0c-0.1,0-0.3,0-0.4,0
	c-0.1,0-0.3,0-0.5,0c-0.8,0-1.4-0.3-1.9-0.9c-0.4-0.6-0.6-1.4-0.6-2.5V215.3L377.3,215.3z M417.8,241.7c-6,0-11.2,1.3-15.5,3.9
	c-4.3,2.5-7.6,6.2-9.9,10.9c-2.3,4.7-3.5,10.3-3.5,16.8c0,6.5,1.2,12.2,3.5,16.9c2.3,4.7,5.6,8.4,9.9,11c4.3,2.6,9.5,3.9,15.5,3.9
	c6,0,11.1-1.3,15.4-3.9c4.3-2.6,7.6-6.2,9.9-11c2.3-4.7,3.5-10.4,3.5-16.9c0-6.5-1.2-12.1-3.5-16.8c-2.3-4.7-5.6-8.4-9.9-10.9
	C428.9,243.1,423.8,241.8,417.8,241.7L417.8,241.7z M417.8,254.3c3.1,0,5.8,0.8,8,2.3c2.2,1.5,4,3.7,5.2,6.5
	c1.2,2.8,1.8,6.2,1.8,10.2c0,4-0.6,7.5-1.8,10.3c-1.2,2.9-2.9,5-5.2,6.6c-2.2,1.5-4.9,2.3-8,2.3c-3.2,0-5.9-0.8-8.2-2.3
	c-2.3-1.5-4-3.7-5.2-6.6c-1.2-2.9-1.8-6.3-1.8-10.3c0-4,0.6-7.4,1.8-10.2c1.2-2.8,2.9-5,5.2-6.5
	C411.9,255.1,414.6,254.3,417.8,254.3L417.8,254.3z M462.7,316.7c-0.4-0.1-0.7-0.1-1,0.1c-0.3,0.2-0.5,0.4-0.6,0.8l-2.9,9.3
	c-0.1,0.4-0.1,0.8,0.1,1.1c0.2,0.3,0.5,0.5,0.9,0.6l6.1,1.8c1.2,0.3,2.5,0.6,4.1,0.9c1.5,0.2,3.1,0.4,4.8,0.5
	c1.7,0.1,3.3,0.2,4.8,0.2c6.4,0,11.8-1.1,16.3-3.3c4.5-2.2,7.9-5.4,10.2-9.7c2.3-4.3,3.5-9.5,3.5-15.7v-52.5c0-0.8-0.4-1.3-1.1-1.5
	l-11.2-4.6c-2.5-1-5-1.7-7.6-2.2c-2.6-0.5-5.2-0.7-7.8-0.7c-6.1,0-11.4,1.3-15.7,3.8c-4.3,2.5-7.7,6.1-10,10.9
	c-2.3,4.8-3.5,10.5-3.5,17.3c0,6.4,1.1,12,3.2,16.7c2.1,4.7,5.2,8.3,9.1,10.9c4,2.5,8.7,3.8,14.2,3.9c3.6,0,6.9-0.7,9.8-1.9
	c2.9-1.3,5.4-3.1,7.5-5.3c0.6-0.5,1-0.7,1.3-0.6c0.3,0.2,0.5,0.5,0.5,0.9c0,0.6-0.1,1.1-0.1,1.5c0,0.4-0.1,0.8-0.1,1.3
	c-0.1,0.4-0.1,1-0.2,1.8c-0.1,0.8-0.1,1.8-0.3,3.2c-0.8,3.3-2.1,6-3.9,7.9c-1.9,2-4.1,3.4-6.6,4.2c-2.5,0.9-5.3,1.3-8.2,1.3
	c-1.2,0-2.5-0.1-3.8-0.2c-1.3-0.1-2.6-0.3-3.8-0.5c-1.2-0.2-2.3-0.4-3.2-0.7L462.7,316.7L462.7,316.7z M495.2,258.2v15.4
	c0,4-0.6,7.4-1.7,10.3c-1.1,2.8-2.8,5-5,6.4c-2.2,1.5-4.9,2.2-8.1,2.2c-3.1,0-5.7-0.8-7.9-2.4c-2.2-1.6-3.8-3.8-4.9-6.7
	c-1.1-2.9-1.7-6.2-1.7-10c0-4,0.6-7.5,1.8-10.3c1.2-2.8,2.9-5,5.2-6.5c2.3-1.5,5-2.3,8.3-2.3c1.8,0,3.6,0.2,5.4,0.5
	c1.8,0.4,3.3,0.9,4.7,1.6L495.2,258.2L495.2,258.2z M545.9,241.7c-6,0-11.2,1.3-15.5,3.9c-4.3,2.5-7.6,6.2-9.9,10.9
	c-2.3,4.7-3.5,10.3-3.5,16.8c0,6.5,1.2,12.2,3.5,16.9c2.3,4.7,5.6,8.4,9.9,11c4.3,2.6,9.5,3.9,15.5,3.9c6,0,11.1-1.3,15.4-3.9
	c4.3-2.6,7.6-6.2,9.9-11c2.3-4.7,3.5-10.4,3.5-16.9c0-6.5-1.2-12.1-3.5-16.8c-2.3-4.7-5.6-8.4-9.9-10.9
	C557,243.1,551.8,241.8,545.9,241.7L545.9,241.7z M545.9,254.3c3.1,0,5.8,0.8,8,2.3c2.2,1.5,4,3.7,5.2,6.5c1.2,2.8,1.8,6.2,1.8,10.2
	c0,4-0.6,7.5-1.8,10.3c-1.2,2.9-2.9,5-5.2,6.6c-2.2,1.5-4.9,2.3-8,2.3c-3.2,0-5.9-0.8-8.2-2.3c-2.3-1.5-4-3.7-5.2-6.6
	c-1.2-2.9-1.8-6.3-1.8-10.3c0-4,0.6-7.4,1.8-10.2c1.2-2.8,2.9-5,5.2-6.5C540,255.1,542.7,254.3,545.9,254.3z"/>
<g class="st1">
</g>
<g>
	<path class="st2" d="M205.7,156.6c4.8-1.3,9.4-2.1,14.3-2.1c19.8,0,31.3,9.3,31.3,25v38c0,1-0.6,1.7-1.7,1.7h-9.8
		c-1,0-1.6-0.4-2.1-1.2l-1.2-2.3c-0.8-1.5-2-1.8-4.2,0c-3.4,3-8.6,4.9-14,4.9c-15.5,0-24.7-7.6-24.7-20.6c0-12,9.6-19,25.7-19h12.2
		v-0.3c-0.5-5.5-5.3-8.8-12.7-8.8c-2.6,0-5.6,0.5-8.5,1.3l-4.9,1.4c-1,0.3-1.7-0.1-2.1-1.2l-4-13.4c-0.4-1.2,0-1.8,1.2-2.1
		L205.7,156.6z M233.3,145.6c0.5,1.2-0.1,1.9-1.3,1.9h-13.9c-0.9,0-1.6-0.4-2.1-1l-12.7-18.9c-0.7-1.2-0.3-2.1,1.2-2.1h19.1
		c1,0,1.6,0.4,1.9,1.3L233.3,145.6z M219.5,193.7c-3.8,0-6.5,2.1-6.5,4.9c0,3.6,2.7,5.7,7.4,5.7c6.8,0,10.5-3.2,11.3-10.3v-0.3
		H219.5z"/>
	<path class="st2" d="M343,189.7c-3.6,13-5.3,19-7.4,28.1c-0.3,0.9-0.9,1.4-1.9,1.4h-21.3c-1,0-1.7-0.5-1.9-1.4l-2.7-11.1l-1.4-5.3
		c-0.8-3-2.1-8.6-2.9-11.8c-0.4-1.7-1.4-1.7-1.8,0c-0.8,3.3-2.1,9.3-2.7,11.8l-1.4,5.3c-1.2,4.2-2,7.5-2.7,11.1
		c-0.3,0.9-0.9,1.4-1.9,1.4h-21.3c-1,0-1.7-0.5-2-1.4c-2.1-9-3.8-14.8-7.4-28.1l-9-31.8c-0.3-1.2,0.3-1.9,1.4-1.9h17.3
		c1,0,1.7,0.5,2,1.4l3,12.4c2.5,10.4,3.9,17.2,5.5,26c0.3,1.7,2.1,1.7,2.5,0c2-8.8,4.9-18.8,7.8-29.5l2.3-8.9
		c0.3-0.9,0.9-1.4,1.9-1.4h11.6c0.9,0,1.6,0.5,1.8,1.4l2.5,8.9c2.9,10.3,5.9,20.7,7.8,29.5c0.4,1.7,2.1,1.7,2.3,0
		c1.4-8.8,2.7-14.9,5.5-26l3-12.4c0.3-0.9,0.9-1.4,1.9-1.4h17.3c1.2,0,1.7,0.8,1.4,1.9L343,189.7z"/>
	<path class="st2" d="M364.1,156.6c4.8-1.3,9.4-2.1,14.3-2.1c19.8,0,31.3,9.3,31.3,25v38c0,1-0.6,1.7-1.7,1.7h-9.8
		c-1,0-1.6-0.4-2.1-1.2l-1.2-2.3c-0.8-1.5-2-1.8-4.2,0c-3.4,3-8.6,4.9-14,4.9c-15.5,0-24.7-7.6-24.7-20.6c0-12,9.6-19,25.7-19h12.2
		v-0.3c-0.5-5.5-5.3-8.8-12.7-8.8c-2.6,0-5.6,0.5-8.5,1.3l-4.9,1.4c-1,0.3-1.7-0.1-2.1-1.2l-4-13.4c-0.4-1.2,0-1.8,1.2-2.1
		L364.1,156.6z M377.9,193.7c-3.8,0-6.5,2.1-6.5,4.9c0,3.6,2.7,5.7,7.4,5.7c6.8,0,10.5-3.2,11.3-10.3v-0.3H377.9z M401.6,125.5
		c1.4,0,1.8,0.9,1.2,2.1l-12.7,18.9c-0.5,0.6-1.2,1-2.1,1h-13.9c-1.2,0-1.8-0.8-1.3-1.9l7.8-18.8c0.4-0.9,0.9-1.3,2-1.3H401.6z"/>
	<path class="st2" d="M457.7,171c0,1.2-0.5,1.7-1.7,1.7c-14.3,0.6-18.7,8.6-18.7,34.4v10.4c0,1-0.7,1.7-1.7,1.7h-17.3
		c-1,0-1.7-0.6-1.7-1.7v-59.8c0-1,0.6-1.7,1.7-1.7h9.2c0.9,0,1.6,0.4,2,1.2l3.4,5.1c1.2,1.7,1.7,2.1,3.3,0.4
		c5.6-5.8,10.8-7.9,19.9-8.1c1,0,1.7,0.6,1.7,1.7V171z"/>
	<path class="st2" d="M470.7,219.2c-1,0-1.7-0.6-1.7-1.7v-43.6h-6.8c-1,0-1.7-0.6-1.7-1.7v-14.5c0-1,0.6-1.7,1.7-1.7h25.6
		c1,0,1.7,0.6,1.7,1.7v59.8c0,1-0.7,1.7-1.7,1.7H470.7z M484.7,146.3c-0.4,0.8-1,1.2-2,1.2h-13c-1.2,0-1.7-0.8-1.4-1.9l5.3-18.7
		c0.3-0.9,0.9-1.4,1.8-1.4h18.1c1.4,0,2,0.8,1.3,1.9L484.7,146.3z"/>
	<path class="st3" d="M567.9,140.8c0,0.9-0.5,1.4-1.4,1.4h-27.7v75.5c0,0.9-0.5,1.4-1.4,1.4h-12c-0.9,0-1.4-0.5-1.4-1.4v-75.5h-27.6
		c-0.9,0-1.4-0.5-1.4-1.4v-10.2c0-0.9,0.5-1.4,1.4-1.4h70.1c0.9,0,1.4,0.5,1.4,1.4V140.8z"/>
	<path class="st3" d="M630.7,187.2c-3.9,10.3-7.2,20.6-9.8,30.8c-0.1,0.8-0.7,1.2-1.6,1.2h-15.2c-0.9,0-1.4-0.4-1.6-1.2
		c-2.7-10-6-20.5-9.9-30.8l-22.4-56.4c-0.4-1,0-1.7,1.2-1.7H584c0.8,0,1.3,0.4,1.6,1.2l18.5,46.1c3,8,5.5,16.7,6.6,22.9
		c0.3,1.4,2,1.4,2.1,0c1.2-6.2,3.6-14.9,6.8-22.9l18.3-46.1c0.3-0.8,0.8-1.2,1.6-1.2H652c1.2,0,1.6,0.6,1.2,1.7L630.7,187.2z"/>
</g>
<g>
	<path class="st4" d="M162.1,24.6l-5.7-1.5l-4-1c0,0.2-0.1,0.4-0.1,0.6c-1,4-5.4,6.3-9.8,5.2L96.9,16.4c-4.4-1.1-7.1-5.2-6.1-9.2
		c0.1-0.2,0.1-0.4,0.2-0.6l-1.2-0.3l-7.7-2c-6.2-1.6-12.9,4-15.1,12.4L4.7,262.4c-2.1,8.4,1.2,16.5,7.3,18.1l7,1.8L85.1,299l6.9,1.8
		c6.2,1.6,12.9-4,15.1-12.4l62.3-245.7C171.6,34.2,168.3,26.1,162.1,24.6z"/>
	<g>
		<ellipse transform="matrix(0.2456 -0.9694 0.9694 0.2456 61.4507 178.9837)" class="st3" cx="145.7" cy="50" rx="9.8" ry="10.8"/>
		<g>
			
				<ellipse transform="matrix(0.2456 -0.9694 0.9694 0.2456 30.5526 192.5276)" class="st5" cx="139" cy="76.6" rx="9.8" ry="10.8"/>
			
				<ellipse transform="matrix(0.2456 -0.9694 0.9694 0.2456 15.0207 157.0943)" class="st5" cx="108.4" cy="68.9" rx="9.8" ry="10.8"/>
			
				<ellipse transform="matrix(0.2456 -0.9694 0.9694 0.2456 -0.724 121.1755)" class="st5" cx="77.5" cy="61.1" rx="9.8" ry="10.8"/>
			
				<ellipse transform="matrix(0.2456 -0.9694 0.9694 0.2456 -1.6695 206.6519)" class="st5" cx="131.9" cy="104.4" rx="9.8" ry="10.8"/>
			
				<ellipse transform="matrix(0.2456 -0.9694 0.9694 0.2456 -17.2013 171.2185)" class="st5" cx="101.4" cy="96.7" rx="9.8" ry="10.8"/>
			
				<ellipse transform="matrix(0.2456 -0.9694 0.9694 0.2456 -32.946 135.2997)" class="st5" cx="70.5" cy="88.8" rx="9.8" ry="10.8"/>
			
				<ellipse transform="matrix(0.2456 -0.9694 0.9694 0.2456 -33.8919 220.7763)" class="st5" cx="124.9" cy="132.2" rx="9.8" ry="10.8"/>
			
				<ellipse transform="matrix(0.2456 -0.9694 0.9694 0.2456 -49.4238 185.3429)" class="st5" cx="94.4" cy="124.4" rx="9.8" ry="10.8"/>
			
				<ellipse transform="matrix(0.2456 -0.9694 0.9694 0.2456 -65.1685 149.4241)" class="st5" cx="63.4" cy="116.6" rx="9.8" ry="10.8"/>
			
				<ellipse transform="matrix(0.2456 -0.9694 0.9694 0.2456 -66.1146 234.9008)" class="st5" cx="117.9" cy="159.9" rx="9.8" ry="10.8"/>
			
				<ellipse transform="matrix(0.2456 -0.9694 0.9694 0.2456 -81.6464 199.4675)" class="st5" cx="87.3" cy="152.2" rx="9.8" ry="10.8"/>
			
				<ellipse transform="matrix(0.2456 -0.9694 0.9694 0.2456 -97.3911 163.5487)" class="st5" cx="56.4" cy="144.3" rx="9.8" ry="10.8"/>
		</g>
		
			<ellipse transform="matrix(0.2456 -0.9694 0.9694 0.2456 -134.8747 223.0605)" class="st5" cx="75.9" cy="198.2" rx="23.5" ry="25.9"/>
		<g>
		</g>
	</g>
	<path class="st2" d="M96.9,16.4l45.6,11.6c4.4,1.1,8.8-1.2,9.8-5.2c0.1-0.2,0.1-0.4,0.1-0.6L90.9,6.5c-0.1,0.2-0.1,0.4-0.2,0.6
		C89.7,11.1,92.5,15.3,96.9,16.4z"/>
</g>
<g>
</g>
</svg>
